<?xml version="1.0" encoding="UTF-8" standalone="no"?>
<svg
   width="1em"
   height="1em"
   viewBox="0 0 1200 1200"
   version="1.1"
   id="svg16"
   sodipodi:docname="group.svg"
   inkscape:version="1.2.2 (732a01da63, 2022-12-09)"
   xmlns:inkscape="http://www.inkscape.org/namespaces/inkscape"
   xmlns:sodipodi="http://sodipodi.sourceforge.net/DTD/sodipodi-0.dtd"
   xmlns="http://www.w3.org/2000/svg"
   xmlns:svg="http://www.w3.org/2000/svg">
  <defs
     id="defs20" />
  <sodipodi:namedview
     id="namedview18"
     pagecolor="#ffffff"
     bordercolor="#000000"
     borderopacity="0.25"
     inkscape:showpageshadow="2"
     inkscape:pageopacity="0.0"
     inkscape:pagecheckerboard="0"
     inkscape:deskcolor="#d1d1d1"
     showgrid="false"
     inkscape:zoom="0.73083333"
     inkscape:cx="595.21095"
     inkscape:cy="600.68415"
     inkscape:window-width="1920"
     inkscape:window-height="1057"
     inkscape:window-x="1912"
     inkscape:window-y="-8"
     inkscape:window-maximized="1"
     inkscape:current-layer="svg16" />
  <path
     d="M0 0h1200v1200H0z"
     fill="none"
     id="path12" />
  <path
     fill="currentColor"
     d="M596.847 188.488c-103.344 0-187.12 97.81-187.12 218.465c0 83.678 40.296 156.352 99.468 193.047l-68.617 31.801l-182.599 84.688c-17.64 8.821-26.444 23.778-26.444 44.947v201.102c1.451 25.143 16.537 48.577 40.996 48.974h649.62c27.924-2.428 42.05-24.92 42.325-48.974V761.436c0-21.169-8.804-36.126-26.443-44.947l-175.988-84.688l-73.138-34.65c56.744-37.521 95.061-108.624 95.061-190.197c-.001-120.656-83.778-218.466-187.121-218.466m-301.824 76.824c-44.473 1.689-79.719 20.933-106.497 51.596c-29.62 36.918-44.06 80.75-44.339 124.354c1.819 64.478 30.669 125.518 82.029 157.446L21.163 693.997C7.05 699.289 0 711.636 0 731.041v161.398c1.102 21.405 12.216 39.395 33.055 39.703h136.284V761.436c2.255-45.639 23.687-82.529 62.196-100.531l136.247-64.817c10.584-6.175 20.731-14.568 30.433-25.152c-56.176-86.676-63.977-190.491-27.773-281.801c-23.547-14.411-50.01-23.672-75.419-23.823m608.586 0c-29.083.609-55.96 11.319-78.039 26.444c35.217 92.137 25.503 196.016-26.482 276.52c11.467 13.23 23.404 23.377 35.753 30.434l130.965 62.195c39.897 21.881 60.47 59.098 60.866 100.532v170.707h140.235c23.063-1.991 32.893-20.387 33.093-39.704V731.042c0-17.641-7.05-29.987-21.163-37.045l-202.431-96.618c52.498-38.708 78.859-96.72 79.369-156.117c-1.396-47.012-15.757-90.664-44.339-124.354c-29.866-32.399-66.91-51.253-107.827-51.596"
     id="path14" />
  <path
     style="fill:#ffffff;stroke-width:1.3683"
     d="M 20.119111,928.21684 C 13.4773,924.92921 9.0365063,919.70973 4.4880316,909.84486 L 1.368301,903.07868 v -93.04447 -93.04447 l 3.4595312,-6.72203 c 1.9027422,-3.69712 5.5971548,-8.37301 8.2098068,-10.39089 2.61265,-2.01787 51.700103,-25.42258 109.083231,-52.01048 57.38312,-26.58788 104.33295,-48.76323 104.33295,-49.27855 0,-0.51532 -3.54048,-3.28581 -7.86773,-6.15664 -10.6359,-7.05621 -29.58044,-26.39946 -38.20822,-39.01239 -24.98906,-36.53139 -38.43252,-86.59257 -34.53902,-128.61745 5.93827,-64.09548 42.18017,-121.18224 91.93881,-144.81827 17.7204,-8.41744 40.38956,-13.84849 57.80344,-13.84849 11.00815,0 28.38257,3.31052 40.81515,7.7769 10.85629,3.90011 30.35685,13.34861 31.55669,15.28999 0.42407,0.68617 -1.68471,8.72617 -4.68618,17.86667 -11.37066,34.62752 -15.72281,66.11139 -14.66794,106.10916 1.01257,38.39381 6.39988,65.92957 19.68604,100.61977 5.73791,14.98173 15.86297,35.71595 23.6685,48.46868 l 5.40409,8.82924 -8.36518,7.74469 c -4.60085,4.25957 -11.49772,9.81148 -15.32639,12.33756 -3.82866,2.52609 -38.36371,19.49104 -76.74456,37.69991 -38.38084,18.20885 -74.0935,35.87049 -79.36146,39.24807 -18.085,11.59531 -31.80015,28.97379 -40.36404,51.14534 -7.86334,20.35782 -8.21064,25.5648 -8.21064,123.09799 v 88.76033 l -71.493732,-0.001 c -70.156404,-10e-4 -71.603691,-0.0556 -77.372337,-2.91093 z"
     id="path942" />
  <path
     style="fill:#ffffff;stroke-width:1.3683"
     d="m 258.60889,1007.2709 c -7.56825,-3.5318 -15.49215,-11.51851 -19.79402,-19.95088 -6.91144,-13.54755 -7.01088,-15.5261 -6.59288,-131.17991 l 0.38918,-107.67945 3.94814,-8.54843 c 2.35373,-5.09625 6.41538,-10.82265 10.05761,-14.17994 7.07811,-6.52437 5.12973,-5.58148 153.95321,-74.50404 60.0171,-27.7949 109.07965,-50.84582 109.02789,-51.2243 -0.0517,-0.37845 -5.63568,-4.69038 -12.40872,-9.58206 -24.56604,-17.74228 -49.49197,-48.61167 -63.55905,-78.71439 -43.21058,-92.46808 -24.07129,-206.83414 45.71182,-273.14916 70.1533,-66.66681 169.42837,-65.40525 238.19454,3.02691 67.85027,67.52068 85.19757,180.57407 41.70591,271.79971 -13.06684,27.40824 -38.80915,59.4674 -61.00008,75.96873 -5.11658,3.80472 -9.30287,7.33458 -9.30287,7.84414 0,0.50954 16.77879,8.85991 37.2862,18.55635 20.50741,9.69644 77.92474,37.19357 127.59407,61.10471 87.31519,42.03411 90.54135,43.72267 97.35341,50.95437 12.82721,13.61736 12.11067,5.67634 12.11067,134.21639 v 112.20068 l -3.28911,8.1674 c -4.42682,10.99255 -14.6573,21.20217 -25.19686,25.14557 l -7.87667,2.947 -330.73543,-0.014 -330.73545,-0.014 -6.84151,-3.1926 z"
     id="path944" />
  <path
     style="fill:#ffffff;stroke-width:1.3683"
     d="m 1026.9099,839.58709 c 0,-98.90563 -0.082,-100.21546 -7.4683,-119.83999 -1.9131,-5.0828 -5.7671,-13.00903 -8.5644,-17.61383 -6.8144,-11.21771 -23.3897,-28.33992 -34.47479,-35.61226 -4.95747,-3.25234 -38.56889,-19.89701 -74.69203,-36.98816 -36.12315,-17.09115 -69.065,-33.28762 -73.20411,-35.99215 -4.13911,-2.70453 -12.23281,-9.48226 -17.986,-15.06164 l -10.46035,-10.14431 5.15588,-8.48674 c 35.35109,-58.18908 49.45541,-136.2099 37.51298,-207.5105 -2.61504,-15.61273 -8.8764,-40.49047 -12.76757,-50.72833 -1.55202,-4.08345 -2.82217,-8.09727 -2.82255,-8.91959 -9.8e-4,-2.12314 23.46101,-14.71058 35.0968,-18.82956 48.20778,-17.06521 97.67776,-4.78561 138.95044,34.49073 42.3485,40.30008 62.2872,109.37433 49.5699,171.72614 -2.7935,13.69614 -10.24,35.32946 -16.3097,47.38218 -11.1249,22.09124 -33.0869,49.4225 -50.52166,62.87331 -4.20291,3.24253 -7.64166,6.33961 -7.64166,6.88243 0,0.54281 46.80432,23.33877 104.00962,50.6577 90.1948,43.07341 104.6609,50.39165 108.9129,55.09813 9.9556,11.01974 9.4264,4.9318 9.4264,108.43186 0,91.4708 -0.048,93.14887 -2.8572,99.21718 -3.2117,6.93862 -9.6777,13.954 -16.1021,17.47044 -3.8935,2.13107 -11.3479,2.39131 -78.5321,2.74159 l -74.2304,0.38703 z"
     id="path946" />
</svg>
