<?xml version="1.0" encoding="UTF-8" standalone="no"?>
<!-- Generator: Adobe Illustrator 28.3.0, SVG Export Plug-In . SVG Version: 6.00 Build 0)  -->

<svg
   version="1.1"
   id="svg1"
   x="0px"
   y="0px"
   viewBox="0 0 782.7 672.3"
   style="enable-background:new 0 0 782.7 672.3;"
   xml:space="preserve"
   xmlns="http://www.w3.org/2000/svg"
   xmlns:svg="http://www.w3.org/2000/svg"><defs
   id="defs1" />
<style
   type="text/css"
   id="style1">
	.st0{fill-rule:evenodd;clip-rule:evenodd;}
</style>

<g
   id="g1">
	
		<path
   id="path7"
   d="m 404.19922,474.09961 -12,28.09961 c -9.1,21.2 -19.69922,45.60156 -20.69922,48.10156 0,0.1 0.0996,0.0992 0.0996,0.19922 l -0.5,1.19922 h 3.09961 0.90039 2.30078 l 0.19922,-0.5 h 0.0996 c 0.3,-0.3 6.20117,-13.89922 13.20117,-30.19922 7,-16.3 12.89961,-29.90078 13.09961,-30.30078 0.3,-0.6 1.5,2.10078 10,21.80078 l 3.40039,8 L 423.5,535 h 0.0996 H 427 c 1.8,0 2.6,3.1e-4 3,-0.0996 h 0.30078 l -0.10156,-0.20117 c 0,-0.1 3.1e-4,-0.19844 -0.0996,-0.39844 -0.2,-0.4 -5.70039,-13.50117 -12.40039,-29.20117 -6.7,-15.7 -12.19883,-28.7 -12.29883,-29 -0.1,-0.2 -0.3,-0.3 -0.5,-0.5 z M 513,474.19922 c -1.2,0 -2.3,0.20039 -2.5,0.40039 -0.6,0.6 -0.6,75.80039 0,76.40039 0.2,0.2 1.3,0.40039 2.5,0.40039 1.2,0 2.3,-0.20039 2.5,-0.40039 0.6,-0.6 0.6,-75.80039 0,-76.40039 -0.3,-0.2 -1.3,-0.40039 -2.5,-0.40039 z m 73.19922,0 c -1.2,0 -2.3,0.20039 -2.5,0.40039 -0.6,0.6 -0.6,75.80039 0,76.40039 0.2,0.2 1.3,0.40039 2.5,0.40039 1.2,0 2.3,-0.20039 2.5,-0.40039 0.6,-0.6 0.6,-75.80039 0,-76.40039 -0.2,-0.2 -1.2,-0.40039 -2.5,-0.40039 z M 536.5,474.90039 c -1.6,0 -2.7,0.10039 -3,0.40039 -0.6,0.6 -0.6,75.5 0,76 0.6,0.6 39.59922,0.6 40.19922,0 0.2,-0.2 0.40039,-1.30117 0.40039,-2.70117 0,-1.4 -0.20039,-2.39922 -0.40039,-2.69922 -0.3,-0.3 -4.49961,-0.40039 -17.09961,-0.40039 h -16.69922 v -35 c 0,-26.8 -0.10039,-35.10039 -0.40039,-35.40039 -0.3,-0.1 -1.4,-0.19922 -3,-0.19922 z m 133.69922,0 c -2.3,0 -3.09844,0.1 -3.39844,0.5 -0.3,0.4 -0.30156,0.7 -0.10156,1 0.2,0.3 5.70117,9.89922 12.20117,21.19922 l 11.90039,20.70117 v 16.09961 c 0,12.1 0.0984,16.2 0.39844,16.5 0.2,0.2 1.4,0.40039 3,0.40039 1.6,0 2.7,-0.10039 3,-0.40039 0.3,-0.3 0.40039,-4.5 0.40039,-17 v -16.70117 l 11.70117,-20.59961 c 9.1,-16 11.69844,-20.69961 11.39844,-21.09961 -0.2,-0.4 -0.99844,-0.49961 -3.39844,-0.59961 h -3 L 713.5,476.09961 c -0.4,0.7 -4.99961,8.8 -10.09961,18 C 698.30039,503.29961 694,510.9 694,511 c 0,0.1 -4.50039,-7.70078 -9.90039,-17.30078 -5.4,-9.6 -10.10039,-17.69961 -10.40039,-18.09961 -0.5,-0.7 -0.8,-0.69922 -3.5,-0.69922 z m -211.29883,0.29883 c -5.1,0 -8.60039,0.002 -10.90039,0.10156 -2.3,0 -3.30039,0.0988 -3.40039,0.29883 -0.4,0.3 -0.5,5.70117 -0.5,37.70117 0,29.2 0.10039,37.39922 0.40039,37.69922 0.3,0.3 4.20039,0.40078 17.40039,0.30078 16.9,-0.1 17,-0.10078 19,-0.80078 4.9,-1.8 9.3,-5.59961 11.5,-10.09961 4.7,-9.6 1.7,-20.40039 -7.5,-26.40039 l -2.20117,-1.40039 1.5,-1.69922 c 4.3,-4.9 6.3,-11.00039 5.5,-17.40039 -1,-8 -6.49922,-14.70078 -14.19922,-17.30078 l -2.59961,-0.89844 z m 172.09961,0 c -22.9,0 -30.00078,0.10039 -30.30078,0.40039 -0.2,0.2 -0.39844,1.30117 -0.39844,2.70117 0,1.4 0.19844,2.39922 0.39844,2.69922 0.3,0.3 3.80039,0.40039 13.90039,0.40039 h 13.5 v 35 c 0,26.8 0.10039,35.10039 0.40039,35.40039 0.2,0.2 1.29922,0.39844 2.69922,0.39844 1.4,0 2.40117,-0.19844 2.70117,-0.39844 0.3,-0.3 0.40039,-8.60039 0.40039,-35.40039 v -35 h 13.39844 c 10,0 13.50078,-0.10039 13.80078,-0.40039 0.2,-0.2 0.40039,-1.29922 0.40039,-2.69922 0,-1.4 -0.20039,-2.40117 -0.40039,-2.70117 -0.4,-0.3 -7.6,-0.40039 -30.5,-0.40039 z m -537.300781,0.90039 -0.09961,0.30078 -3.5,18.40039 L 79,551.90039 h 0.599609 C 79.899609,552.00039 80.4,552 81.5,552 l 2.099609,-0.0996 6.701172,-34.59961 c 3.7,-19 6.798438,-34.6 6.898438,-34.5 0.1,0.1 6.400391,14.29922 13.900391,31.69922 C 118.59961,531.89992 124.9,546 125,546 l 0.0996,-0.19922 0.0996,0.19922 14.90039,-34.40039 c 6.6,-15.2 12.60117,-28.69883 12.70117,-28.79883 0.1,-0.1 2.99883,14.79961 6.29883,31.59961 l 7.09961,37.40039 h 0.10156 l 0.0996,0.29883 h 2.19922 c 1.14375,0 2.10763,-0.0924 2.19531,-0.1875 l 0.002,-0.002 0.002,-0.002 v -0.002 -0.002 l 0.002,-0.002 v -0.002 c 0,-0.5 -3.8,-19.50117 -7.5,-38.70117 l -7.10156,-37 h -5.79883 L 125,534.69922 c -0.1,-0.1 -5.79922,-12.99883 -12.69922,-28.79883 -6.9,-15.9 -12.70078,-28.99961 -12.80078,-29.09961 h -0.09961 l -0.300782,-0.60156 z m 118.300781,0 c -19.7,0 -35.80078,16.8 -35.80078,37.5 0,2 0.2,4.00039 0.5,5.90039 0.2,1.4 0.50039,2.90078 0.90039,4.30078 0,0.1 0.0996,0.19844 0.0996,0.39844 0.6,2.3 1.40039,4.60078 2.40039,6.80078 2,4.2 3.70039,6.7 6.90039,10 5.3,5.5 11.09922,8.80078 18.19922,10.30078 9.5,2 19.70117,-0.40039 27.70117,-6.40039 10,-7.5 15.10039,-19.30078 14.90039,-31.30078 V 513.5 512.90039 C 247.40086,492.50039 231.5,476.09961 212,476.09961 Z m 95,1 -0.0996,0.20117 h -0.0996 l -13.20117,30.79883 -14,32.20117 c -0.1,0.1 -6.19961,-14.00039 -13.59961,-31.40039 L 252.5,477.30078 H 250.19922 250 247.59961 l 10.80078,25.09961 c 2.3,5.5 2.29922,5.60039 5.19922,12.40039 8.4,19.8 12.20117,28.59883 14.20117,32.79883 L 279.69922,552 303.40039,495.80078 c 2.9,-6.9 7.90039,-18.5 7.90039,-18.5 h -0.10156 l 0.10156,-0.20117 z m 10.80078,0.30078 v 5.79883 31.70117 37.40039 l 20.69922,-0.10156 20.69922,-0.0996 V 551 550 l 0.10156,-2.19922 h -0.10156 v -0.10156 l -37,-0.0996 V 533 520.40039 518.19922 l 14.5,-0.0996 h 0.70117 13.69922 V 518 h 0.0996 v -2.09961 -2.09961 h -0.0996 -7 -7.40039 l -14.5,-0.10156 v -2.5 -13.5 -16 h 3.70117 15.29883 19 V 479.59961 477.5 H 360 v -0.0996 z m 132.79883,3.90039 h 10 c 10.8,0 12.5,0.19922 15.5,1.69922 7,3.6 9.8,12.80078 6,20.30078 -1.8,3.5 -5.5,6.29922 -9.5,7.19922 -1.7,0.4 -4.29961,0.5 -12.09961,0.5 h -9.90039 V 496.09961 Z M 212,481.80078 c 5,0 6.59922,0.19922 10.69922,1.69922 5.8,2.1 11.70117,6.79961 15.20117,12.09961 3.3,4.9 5.09922,10.30117 5.69922,15.70117 0,0.4 0.0996,0.69961 0.0996,1.09961 0.1,0.9 0,1.69961 0,2.59961 -0.7,17.6 -14.59961,31.49961 -31.59961,31.59961 -15.3,0 -28.39961,-11.4 -31.09961,-27 l -0.30078,-1.79883 c 0,-0.4 -0.0996,-0.80117 -0.0996,-1.20117 -0.1,-1.2 -0.1,-2.49922 0,-3.69922 0.6,-12.2 7.69961,-22.90117 18.59961,-28.20117 4.6,-2.3 7.10078,-2.89844 12.80078,-2.89844 z m 238.59961,35.29883 13.20117,0.0996 c 12.9,0.1 13.29883,0.10078 15.29883,0.80078 5.7,2 9.09961,7.00078 9.09961,13.30078 0,6.4 -2.99922,10.99883 -8.69922,13.29883 -1.8,0.7 -2.10039,0.70078 -15.40039,0.80078 l -13.5,0.0996 V 531.19922 Z M 426.80078,543 l 0.89844,1.80078 0.80078,1.89844 c 0.7,1.7 1.29922,2.9 1.69922,3.5 l 0.60156,1.30078 h 1.59961 c 0.3,0 0.5,0.0996 1,0.0996 2.1,0.1 2.7,0.10031 3,-0.0996 H 437.5 l -3.59961,-8.5 h -1.80078 -1.69922 -3.5 z M 399,569.90039 c -213.3,0 -320.300781,0.0988 -320.300781,0.29883 0,0.2 107.000781,0.30078 320.300781,0.30078 213.3,0 320.30078,-0.10078 320.30078,-0.30078 0,-0.2 -106.90078,-0.29883 -320.30078,-0.29883 z"
   style="fill:#ffffff;fill-opacity:1" />
	<path
   id="path1"
   class="st0"
   d="M321.8,141.2v6.3h-82.9l86.6,150.3l78.6-157.1l63.6,126.2h-37.1l-26.2-54.4   l-59.4,118.8l59,102.2l59.4-101.8l-16.3-33.2h35l87.3-150.6h-82.4v-6.7h94.4L404.5,449L227.2,143.2l0.2-2.2L321.8,141.2z"
   style="fill:#ffffff;fill-opacity:1" />
</g>
<path
   style="font-size:53.3333px;font-family:'Josefin Sans';-inkscape-font-specification:'Josefin Sans, Normal';fill:#ffffff;fill-opacity:1"
   d="m 123.42521,617.0388 q -2.93333,0 -5.33333,-1.38667 -2.34666,-1.38666 -3.78666,-3.73333 -1.38667,-2.4 -1.38667,-5.49333 0,-3.41333 1.44,-5.81333 1.49333,-2.45333 3.94667,-3.68 2.45333,-1.27999 5.54666,-1.27999 2.93333,0 5.44,1.70666 2.56,1.70667 3.73333,4.37333 l -0.26667,0.74667 0.32,-6.29333 h 1.49333 v 20.47999 h -1.76 v -6.66667 l 0.32,0.85334 q -0.42666,1.22666 -1.38666,2.34666 -0.90667,1.06667 -2.24,1.97333 -1.28,0.85334 -2.82666,1.38667 -1.54667,0.48 -3.25334,0.48 z m 0.32,-1.49333 q 2.45334,0 4.48,-1.06667 2.02667,-1.12 3.25333,-2.98666 1.22667,-1.92 1.33333,-4.42667 v -2.56 q -0.42666,-2.08 -1.75999,-3.73333 -1.28,-1.65333 -3.2,-2.61333 -1.92,-1.01333 -4.16,-1.01333 -2.45333,0 -4.53333,1.12 -2.08,1.12 -3.30667,3.2 -1.17333,2.07999 -1.17333,4.85333 0,2.55999 1.22667,4.63999 1.22666,2.08 3.25333,3.36 2.08,1.22667 4.58666,1.22667 z m 45.17332,1.49333 q -2.88,0 -5.28,-1.38667 -2.4,-1.44 -3.78666,-3.83999 -1.38667,-2.45334 -1.38667,-5.49333 0,-3.25334 1.38667,-5.65333 1.43999,-2.4 3.83999,-3.68 2.45333,-1.33333 5.38667,-1.33333 3.09333,0 5.75999,1.70666 2.72,1.70667 3.89333,4.37333 l -0.26666,0.90667 v -26.29332 h 1.76 v 40.31998 h -1.81334 v -6.66667 l 0.32,1.01334 q -1.22666,2.66666 -3.89333,4.37333 -2.61333,1.65333 -5.91999,1.65333 z m 0.37333,-1.54667 q 2.50666,0 4.53333,-1.12 2.08,-1.11999 3.30667,-3.03999 1.22666,-1.97334 1.27999,-4.42667 v -2.18666 q -0.37333,-2.13334 -1.70666,-3.84 -1.28,-1.70667 -3.25333,-2.72 -1.92,-1.06667 -4.16,-1.06667 -2.56,0 -4.64,1.17334 -2.02666,1.17333 -3.25333,3.25333 -1.17333,2.08 -1.17333,4.8 0,2.50666 1.22666,4.63999 1.22667,2.08 3.25334,3.30667 2.07999,1.22666 4.58666,1.22666 z m 45.33335,1.54667 q -2.93333,0 -5.33333,-1.38667 -2.34666,-1.38666 -3.78666,-3.73333 -1.38667,-2.4 -1.38667,-5.49333 0,-3.41333 1.44,-5.81333 1.49333,-2.45333 3.94666,-3.68 2.45334,-1.27999 5.54667,-1.27999 2.93333,0 5.43999,1.70666 2.56,1.70667 3.73334,4.37333 l -0.26667,0.74667 0.32,-6.29333 h 1.49333 v 20.47999 h -1.76 v -6.66667 l 0.32,0.85334 q -0.42666,1.22666 -1.38666,2.34666 -0.90667,1.06667 -2.24,1.97333 -1.28,0.85334 -2.82667,1.38667 -1.54666,0.48 -3.25333,0.48 z m 0.32,-1.49333 q 2.45333,0 4.48,-1.06667 2.02666,-1.12 3.25333,-2.98666 1.22667,-1.92 1.33333,-4.42667 v -2.56 q -0.42666,-2.08 -1.76,-3.73333 -1.28,-1.65333 -3.2,-2.61333 -1.91999,-1.01333 -4.15999,-1.01333 -2.45333,0 -4.53333,1.12 -2.08,1.12 -3.30667,3.2 -1.17333,2.07999 -1.17333,4.85333 0,2.55999 1.22667,4.63999 1.22666,2.08 3.25333,3.36 2.08,1.22667 4.58666,1.22667 z m 38.23998,-19.35999 0.21334,6.02666 -0.26667,-0.53333 q 1.01333,-2.77333 3.46667,-4.37333 2.50666,-1.6 5.43999,-1.6 1.70667,0 3.09333,0.69333 1.44,0.69333 2.34667,1.86667 0.90667,1.17333 1.01333,2.66666 l -0.26666,0.32 q 1.06666,-2.72 3.46666,-4.10666 2.4,-1.44 5.22666,-1.44 2.88,0 4.58667,1.65333 1.76,1.65333 1.81333,4.21333 v 15.09333 h -1.76 v -14.71999 q -0.0533,-1.86667 -1.28,-3.2 -1.22666,-1.38667 -3.62666,-1.54667 -2.13334,0 -4,1.06667 -1.81333,1.01333 -2.98667,2.77333 -1.17333,1.76 -1.27999,3.89333 v 11.73333 h -1.70667 v -14.71999 q -0.10667,-1.86667 -1.38667,-3.2 -1.22666,-1.38667 -3.62666,-1.54667 -2.18667,0 -4.05333,1.06667 -1.86667,1.06666 -2.98667,2.88 -1.12,1.81333 -1.12,4.05333 v 11.46666 h -1.75999 v -20.47999 z m 122.45356,0 0.21333,6.34666 -0.21333,-0.69333 q 0.64,-1.92 2.08,-3.25333 1.43999,-1.38667 3.25333,-2.13333 1.81333,-0.74667 3.67999,-0.74667 l -0.10666,1.65333 q -2.34667,0.0533 -4.32,1.12 -1.97333,1.01333 -3.14666,2.82667 -1.12,1.75999 -1.12,3.99999 v 11.36 h -1.76 v -20.47999 z m 34.34663,30.29331 13.28,-30.29331 h 1.81333 l -13.17333,30.29331 z m 4.42667,-9.54666 -9.6,-20.74665 h 1.97334 l 9.06666,19.73332 z m 44.53334,0.10667 q -3.25333,0 -5.91999,-1.76 -2.61333,-1.81333 -3.78667,-4.48 l 0.37334,-1.33333 v 7.2 h -1.76 v -40.31998 h 1.76 v 26.29332 l -0.21334,-1.12 q 1.17334,-2.66667 3.84,-4.26667 2.66667,-1.59999 5.86666,-1.59999 2.93334,0 5.28,1.38666 2.4,1.38667 3.78667,3.84 1.43999,2.4 1.43999,5.44 0,3.46666 -1.49333,5.86666 -1.44,2.4 -3.89333,3.62666 -2.4,1.22667 -5.28,1.22667 z m -0.21333,-1.54667 q 2.77333,0 4.8,-1.17333 2.08,-1.17333 3.14666,-3.25333 1.12,-2.08 1.12,-4.74666 0,-2.50667 -1.12,-4.58667 -1.12,-2.08 -3.19999,-3.36 -2.02667,-1.28 -4.74667,-1.28 -2.34666,0 -4.26666,1.01334 -1.92,0.96 -3.2,2.66666 -1.28,1.65333 -1.65333,3.78667 v 2.82666 q 0.10666,2.13333 1.33333,4 1.22667,1.81333 3.25333,2.98666 2.02667,1.12 4.53333,1.12 z m 43.20002,1.54667 q -2.93333,0 -5.33333,-1.38667 -2.34667,-1.38666 -3.78666,-3.73333 -1.38667,-2.4 -1.38667,-5.49333 0,-3.41333 1.44,-5.81333 1.49333,-2.45333 3.94666,-3.68 2.45334,-1.27999 5.54667,-1.27999 2.93333,0 5.43999,1.70666 2.56,1.70667 3.73333,4.37333 l -0.26666,0.74667 0.32,-6.29333 h 1.49333 v 20.47999 h -1.76 v -6.66667 l 0.32,0.85334 q -0.42667,1.22666 -1.38666,2.34666 -0.90667,1.06667 -2.24,1.97333 -1.28,0.85334 -2.82667,1.38667 -1.54666,0.48 -3.25333,0.48 z m 0.32,-1.49333 q 2.45333,0 4.48,-1.06667 2.02666,-1.12 3.25333,-2.98666 1.22666,-1.92 1.33333,-4.42667 v -2.56 q -0.42667,-2.08 -1.76,-3.73333 -1.28,-1.65333 -3.2,-2.61333 -1.91999,-1.01333 -4.15999,-1.01333 -2.45334,0 -4.53333,1.12 -2.08,1.12 -3.30667,3.2 -1.17333,2.07999 -1.17333,4.85333 0,2.55999 1.22666,4.63999 1.22667,2.08 3.25334,3.36 2.07999,1.22667 4.58666,1.22667 z m 52.31996,-0.85334 q -1.44,1.06667 -3.2,1.70667 -1.70666,0.64 -3.62666,0.64 -3.09333,0 -5.54667,-1.38667 -2.39999,-1.44 -3.83999,-3.78666 -1.38667,-2.4 -1.38667,-5.44 0,-3.04 1.44,-5.43999 1.44,-2.45334 3.84,-3.84 2.45333,-1.44 5.33333,-1.44 2.08,0 3.84,0.64 1.81333,0.64 3.14666,1.76 l -0.96,1.22666 q -1.17333,-0.96 -2.72,-1.54666 -1.49333,-0.58667 -3.2,-0.58667 -2.50666,0 -4.53333,1.22667 -2.02666,1.22666 -3.25333,3.36 -1.17333,2.07999 -1.17333,4.63999 0,2.50667 1.17333,4.58667 1.22667,2.08 3.30667,3.30666 2.08,1.22667 4.58666,1.22667 1.65333,0 3.09333,-0.53334 1.49333,-0.53333 2.66667,-1.44 z m 23.46672,-17.01332 q -1.33333,0 -2.18666,-0.53333 -0.8,-0.58667 -0.8,-2.24 v -0.64 h 1.44 v 0.64 q 0,0.58667 0.42666,0.96 0.48,0.32 1.38667,0.32 h 13.27999 l -13.65332,19.35999 -0.37334,-0.42667 h 13.81333 v 1.54667 h -16.21333 l 13.76,-19.51999 0.42666,0.53333 z m 38.66669,28.79998 13.27999,-30.29331 h 1.81333 l -13.17332,30.29331 z m 4.42666,-9.54666 -9.59999,-20.74665 h 1.97333 l 9.06666,19.73332 z m 33.43999,-0.26666 v -40.31998 h 1.76 v 40.31998 z m 6.34666,-13.22666 9.6,13.22666 h -2.08 l -8.8,-12.26666 z m -5.27999,5.49333 -0.10667,-1.81333 12.53332,-11.36 1.12,0.96 z"
   id="text1"
   aria-label="a d a m     r y b a c z y k" /></svg>
