<?xml version="1.0" encoding="UTF-8" standalone="no"?>
<!-- Generator: Adobe Illustrator 28.3.0, SVG Export Plug-In . SVG Version: 6.00 Build 0)  -->

<svg
   version="1.1"
   id="svg1"
   x="0px"
   y="0px"
   viewBox="0 0 782.7 672.3"
   style="enable-background:new 0 0 782.7 672.3;"
   xml:space="preserve"
   xmlns="http://www.w3.org/2000/svg"
   xmlns:svg="http://www.w3.org/2000/svg"><defs
   id="defs1" />
<style
   type="text/css"
   id="style1">
	.st0{fill-rule:evenodd;clip-rule:evenodd;}
</style>

<g
   id="g1">
	
		<path
   id="path7"
   d="m 404.19922,474.09961 -12,28.09961 c -9.1,21.2 -19.69922,45.60156 -20.69922,48.10156 0,0.1 0.0996,0.0992 0.0996,0.19922 l -0.5,1.19922 h 3.09961 0.90039 2.30078 l 0.19922,-0.5 h 0.0996 c 0.3,-0.3 6.20117,-13.89922 13.20117,-30.19922 7,-16.3 12.89961,-29.90078 13.09961,-30.30078 0.3,-0.6 1.5,2.10078 10,21.80078 l 3.40039,8 L 423.5,535 h 0.0996 H 427 c 1.8,0 2.6,3.7e-4 3,-0.0996 h 0.30078 l -0.10156,-0.20117 c 0,-0.1 3.7e-4,-0.19844 -0.0996,-0.39844 -0.2,-0.4 -5.70039,-13.50117 -12.40039,-29.20117 -6.7,-15.7 -12.19883,-28.7 -12.29883,-29 -0.1,-0.2 -0.3,-0.3 -0.5,-0.5 z M 513,474.19922 c -1.2,0 -2.3,0.20039 -2.5,0.40039 -0.6,0.6 -0.6,75.80039 0,76.40039 0.2,0.2 1.3,0.40039 2.5,0.40039 1.2,0 2.3,-0.20039 2.5,-0.40039 0.6,-0.6 0.6,-75.80039 0,-76.40039 -0.3,-0.2 -1.3,-0.40039 -2.5,-0.40039 z m 73.19922,0 c -1.2,0 -2.3,0.20039 -2.5,0.40039 -0.6,0.6 -0.6,75.80039 0,76.40039 0.2,0.2 1.3,0.40039 2.5,0.40039 1.2,0 2.3,-0.20039 2.5,-0.40039 0.6,-0.6 0.6,-75.80039 0,-76.40039 -0.2,-0.2 -1.2,-0.40039 -2.5,-0.40039 z M 536.5,474.90039 c -1.6,0 -2.7,0.10039 -3,0.40039 -0.6,0.6 -0.6,75.5 0,76 0.6,0.6 39.59922,0.6 40.19922,0 0.2,-0.2 0.40039,-1.30117 0.40039,-2.70117 0,-1.4 -0.20039,-2.39922 -0.40039,-2.69922 -0.3,-0.3 -4.49961,-0.40039 -17.09961,-0.40039 h -16.69922 v -35 c 0,-26.8 -0.10039,-35.10039 -0.40039,-35.40039 -0.3,-0.1 -1.4,-0.19922 -3,-0.19922 z m 133.69922,0 c -2.3,0 -3.09844,0.1 -3.39844,0.5 -0.3,0.4 -0.30156,0.7 -0.10156,1 0.2,0.3 5.70117,9.89922 12.20117,21.19922 l 11.90039,20.70117 v 16.09961 c 0,12.1 0.0984,16.2 0.39844,16.5 0.2,0.2 1.4,0.40039 3,0.40039 1.6,0 2.7,-0.10039 3,-0.40039 0.3,-0.3 0.40039,-4.5 0.40039,-17 v -16.70117 l 11.70117,-20.59961 c 9.1,-16 11.69844,-20.69961 11.39844,-21.09961 -0.2,-0.4 -0.99844,-0.49961 -3.39844,-0.59961 h -3 L 713.5,476.09961 c -0.4,0.7 -4.99961,8.8 -10.09961,18 C 698.30039,503.29961 694,510.9 694,511 c 0,0.1 -4.50039,-7.70078 -9.90039,-17.30078 -5.4,-9.6 -10.10039,-17.69961 -10.40039,-18.09961 -0.5,-0.7 -0.8,-0.69922 -3.5,-0.69922 z m -211.29883,0.29883 c -5.1,0 -8.60039,0.002 -10.90039,0.10156 -2.3,0 -3.30039,0.0988 -3.40039,0.29883 -0.4,0.3 -0.5,5.70117 -0.5,37.70117 0,29.2 0.10039,37.39922 0.40039,37.69922 0.3,0.3 4.20039,0.40078 17.40039,0.30078 16.9,-0.1 17,-0.10078 19,-0.80078 4.9,-1.8 9.3,-5.59961 11.5,-10.09961 4.7,-9.6 1.7,-20.40039 -7.5,-26.40039 l -2.20117,-1.40039 1.5,-1.69922 c 4.3,-4.9 6.3,-11.00039 5.5,-17.40039 -1,-8 -6.49922,-14.70078 -14.19922,-17.30078 l -2.59961,-0.89844 z m 172.09961,0 c -22.9,0 -30.00078,0.10039 -30.30078,0.40039 -0.2,0.2 -0.39844,1.30117 -0.39844,2.70117 0,1.4 0.19844,2.39922 0.39844,2.69922 0.3,0.3 3.80039,0.40039 13.90039,0.40039 h 13.5 v 35 c 0,26.8 0.10039,35.10039 0.40039,35.40039 0.2,0.2 1.29922,0.39844 2.69922,0.39844 1.4,0 2.40117,-0.19844 2.70117,-0.39844 0.3,-0.3 0.40039,-8.60039 0.40039,-35.40039 v -35 h 13.39844 c 10,0 13.50078,-0.10039 13.80078,-0.40039 0.2,-0.2 0.40039,-1.29922 0.40039,-2.69922 0,-1.4 -0.20039,-2.40117 -0.40039,-2.70117 -0.4,-0.3 -7.6,-0.40039 -30.5,-0.40039 z m -537.300781,0.90039 -0.09961,0.30078 -3.5,18.40039 L 79,551.90039 h 0.599609 C 79.899609,552.00039 80.4,552 81.5,552 l 2.099609,-0.0996 6.701172,-34.59961 c 3.7,-19 6.798438,-34.6 6.898438,-34.5 0.1,0.1 6.400391,14.29922 13.900391,31.69922 C 118.59961,531.89998 124.9,546 125,546 l 0.0996,-0.19922 0.0996,0.19922 14.90039,-34.40039 c 6.6,-15.2 12.60117,-28.69883 12.70117,-28.79883 0.1,-0.1 2.99883,14.79961 6.29883,31.59961 l 7.09961,37.40039 h 0.10156 l 0.0996,0.29883 h 2.19922 c 1.14375,0 2.10763,-0.0924 2.19531,-0.1875 l 0.002,-0.002 0.002,-0.002 v -0.002 -0.002 l 0.002,-0.002 v -0.002 c 0,-0.5 -3.8,-19.50117 -7.5,-38.70117 l -7.10156,-37 h -5.79883 L 125,534.69922 c -0.1,-0.1 -5.79922,-12.99883 -12.69922,-28.79883 -6.9,-15.9 -12.70078,-28.99961 -12.80078,-29.09961 h -0.09961 l -0.300782,-0.60156 z m 118.300781,0 c -19.7,0 -35.80078,16.8 -35.80078,37.5 0,2 0.2,4.00039 0.5,5.90039 0.2,1.4 0.50039,2.90078 0.90039,4.30078 0,0.1 0.0996,0.19844 0.0996,0.39844 0.6,2.3 1.40039,4.60078 2.40039,6.80078 2,4.2 3.70039,6.7 6.90039,10 5.3,5.5 11.09922,8.80078 18.19922,10.30078 9.5,2 19.70117,-0.40039 27.70117,-6.40039 10,-7.5 15.10039,-19.30078 14.90039,-31.30078 V 513.5 512.90039 C 247.4008,492.50039 231.5,476.09961 212,476.09961 Z m 95,1 -0.0996,0.20117 h -0.0996 l -13.20117,30.79883 -14,32.20117 c -0.1,0.1 -6.19961,-14.00039 -13.59961,-31.40039 L 252.5,477.30078 H 250.19922 250 247.59961 l 10.80078,25.09961 c 2.3,5.5 2.29922,5.60039 5.19922,12.40039 8.4,19.8 12.20117,28.59883 14.20117,32.79883 L 279.69922,552 303.40039,495.80078 c 2.9,-6.9 7.90039,-18.5 7.90039,-18.5 h -0.10156 l 0.10156,-0.20117 z m 10.80078,0.30078 v 5.79883 31.70117 37.40039 l 20.69922,-0.10156 20.69922,-0.0996 V 551 550 l 0.10156,-2.19922 h -0.10156 v -0.10156 l -37,-0.0996 V 533 520.40039 518.19922 l 14.5,-0.0996 h 0.70117 13.69922 V 518 h 0.0996 v -2.09961 -2.09961 h -0.0996 -7 -7.40039 l -14.5,-0.10156 v -2.5 -13.5 -16 h 3.70117 15.29883 19 V 479.59961 477.5 H 360 v -0.0996 z m 132.79883,3.90039 h 10 c 10.8,0 12.5,0.19922 15.5,1.69922 7,3.6 9.8,12.80078 6,20.30078 -1.8,3.5 -5.5,6.29922 -9.5,7.19922 -1.7,0.4 -4.29961,0.5 -12.09961,0.5 h -9.90039 V 496.09961 Z M 212,481.80078 c 5,0 6.59922,0.19922 10.69922,1.69922 5.8,2.1 11.70117,6.79961 15.20117,12.09961 3.3,4.9 5.09922,10.30117 5.69922,15.70117 0,0.4 0.0996,0.69961 0.0996,1.09961 0.1,0.9 0,1.69961 0,2.59961 -0.7,17.6 -14.59961,31.49961 -31.59961,31.59961 -15.3,0 -28.39961,-11.4 -31.09961,-27 l -0.30078,-1.79883 c 0,-0.4 -0.0996,-0.80117 -0.0996,-1.20117 -0.1,-1.2 -0.1,-2.49922 0,-3.69922 0.6,-12.2 7.69961,-22.90117 18.59961,-28.20117 4.6,-2.3 7.10078,-2.89844 12.80078,-2.89844 z m 238.59961,35.29883 13.20117,0.0996 c 12.9,0.1 13.29883,0.10078 15.29883,0.80078 5.7,2 9.09961,7.00078 9.09961,13.30078 0,6.4 -2.99922,10.99883 -8.69922,13.29883 -1.8,0.7 -2.10039,0.70078 -15.40039,0.80078 l -13.5,0.0996 V 531.19922 Z M 426.80078,543 l 0.89844,1.80078 0.80078,1.89844 c 0.7,1.7 1.29922,2.9 1.69922,3.5 l 0.60156,1.30078 h 1.59961 c 0.3,0 0.5,0.0996 1,0.0996 2.1,0.1 2.7,0.10037 3,-0.0996 H 437.5 l -3.59961,-8.5 h -1.80078 -1.69922 -3.5 z M 399,569.90039 c -213.3,0 -320.300781,0.0988 -320.300781,0.29883 0,0.2 107.000781,0.30078 320.300781,0.30078 213.3,0 320.30078,-0.10078 320.30078,-0.30078 0,-0.2 -106.90078,-0.29883 -320.30078,-0.29883 z m -70.30078,20.19922 -0.01,0.44141 c 0.18248,-0.14753 0.36206,-0.29416 0.53907,-0.44141 z"
   style="fill:#ffffff;fill-opacity:1" />
	<path
   id="path1"
   class="st0"
   d="M321.8,141.2v6.3h-82.9l86.6,150.3l78.6-157.1l63.6,126.2h-37.1l-26.2-54.4   l-59.4,118.8l59,102.2l59.4-101.8l-16.3-33.2h35l87.3-150.6h-82.4v-6.7h94.4L404.5,449L227.2,143.2l0.2-2.2L321.8,141.2z"
   style="fill:#ffffff;fill-opacity:1" />
</g>
<path
   style="font-size:40px;font-family:Alcubierre;-inkscape-font-specification:'Alcubierre, Normal';stroke-width:1.07295;fill:#ffffff;fill-opacity:1"
   d="m 123.11313,648.32465 v -19.96 h -1.72 v 3.96 l -2.08,-1.72 c -1.72,-1.44 -3.84,-2.2 -6.08,-2.2 -5.32,0 -9.64,4.44 -9.64,9.96 0,5.48 4.32,9.96 9.64,9.96 2.24,0 4.36,-0.76 6.08,-2.2 l 2.08,-1.72 v 3.92 z m -1.92,-8.88 c -0.56,4.16 -3.84,7.08 -7.96,7.08 -4.52,0 -7.96,-3.52 -7.96,-8.16 0,-4.64 3.44,-8.2 7.96,-8.2 4.12,0 7.4,2.92 7.96,7.12 v 0.16 z m 36.95998,-10.52 c -5.16,0 -9.4,4.36 -9.4,9.68 0,5.32 4.24,9.68 9.4,9.68 2.16,0 4.2,-0.76 5.92,-2.16 l 2,-1.68 v 3.84 h 1.56 v -30.08 h -1.56 v 14.56 l -2,-1.68 c -1.72,-1.4 -3.76,-2.16 -5.92,-2.16 z m 0,17.64 c -4.4,0 -7.76,-3.48 -7.76,-7.96 0,-4.48 3.36,-7.84 7.76,-7.84 4,0 7.28,2.72 7.8,6.8 v 2.08 c -0.52,4.08 -3.8,6.92 -7.8,6.92 z m 54.68002,1.76 v -19.96 h -1.72 v 3.96 l -2.08,-1.72 c -1.72,-1.44 -3.84,-2.2 -6.08,-2.2 -5.32,0 -9.64,4.44 -9.64,9.96 0,5.48 4.32,9.96 9.64,9.96 2.24,0 4.36,-0.76 6.08,-2.2 l 2.08,-1.72 v 3.92 z m -1.92,-8.88 c -0.56,4.16 -3.84,7.08 -7.96,7.08 -4.52,0 -7.96,-3.52 -7.96,-8.16 0,-4.64 3.44,-8.2 7.96,-8.2 4.12,0 7.4,2.92 7.96,7.12 v 0.16 z m 54.99998,-9.28 c 3.56,0 7.24,3 7.76,7.08 l -0.04,11.12 h 1.56 c 0.08,-9.32 0.08,-9.88 0.04,-10.56 -0.44,-4.92 -4.28,-9.32 -9.32,-9.32 -3.04,0 -5.72,1.48 -7.56,4.12 l -1.08,1.56 -1.08,-1.56 c -1.8,-2.64 -4.56,-4.12 -7.52,-4.12 -1.96,0 -3.6,0.56 -5.44,1.88 -1.36,0.96 -2.12,2.16 -2.12,2.16 v -4.16 h -1.68 v 20 h 1.68 l 0.04,-12.72 c 1.36,-3.48 4.24,-5.48 7.52,-5.48 3.6,0 6.64,2.4 7.8,6.24 v 11.96 h 1.6 v -11.76 c 1.04,-3.92 4.2,-6.44 7.84,-6.44 z m 67.03999,-1.92 c -1.88,0.2 -3.6,0.84 -5,2.12 -1.24,1.16 -2.08,2.56 -2.08,2.56 v -4.68 h -1.36 v 20.08 h 1.36 v -11.56 c 0.72,-3.64 3.48,-6.76 7.08,-7.08 z m 43.88001,0.08 h -1.76 l -7.08,16.04 -7.04,-16.04 h -1.8 l 8,18.4 -5.04,11.72 h 1.8 l 5.36,-12.48 z m 36.36003,0.6 c -2.16,0 -4.2,0.76 -5.92,2.16 l -2,1.68 v -14.56 h -1.56 v 30.08 h 1.56 v -3.84 l 2,1.68 c 1.72,1.4 3.76,2.16 5.92,2.16 5.16,0 9.4,-4.36 9.4,-9.68 0,-5.32 -4.24,-9.68 -9.4,-9.68 z m 0,17.64 c -4,0 -7.28,-2.84 -7.8,-6.92 v -2.08 c 0.52,-4.08 3.8,-6.8 7.8,-6.8 4.4,0 7.76,3.36 7.76,7.84 0,4.48 -3.36,7.96 -7.76,7.96 z m 54.88001,1.76 v -19.96 h -1.72 v 3.96 l -2.08,-1.72 c -1.72,-1.44 -3.84,-2.2 -6.08,-2.2 -5.32,0 -9.64,4.44 -9.64,9.96 0,5.48 4.32,9.96 9.64,9.96 2.24,0 4.36,-0.76 6.08,-2.2 l 2.08,-1.72 v 3.92 z m -1.92,-8.88 c -0.56,4.16 -3.84,7.08 -7.96,7.08 -4.52,0 -7.96,-3.52 -7.96,-8.16 0,-4.64 3.44,-8.2 7.96,-8.2 4.12,0 7.4,2.92 7.96,7.12 v 0.16 z m 37.55998,-11.32 c -5.56,0 -10.08,4.52 -10.08,10.12 0,5.56 4.52,10.08 10.08,10.08 1.88,0 3.72,-0.52 5.32,-1.52 l -0.72,-1.56 c -1.36,0.92 -2.96,1.4 -4.6,1.4 -4.64,0 -8.4,-3.8 -8.4,-8.4 0,-4.64 3.76,-8.4 8.4,-8.4 1.64,0 3.2,0.44 4.56,1.32 l 0.76,-1.52 c -1.6,-1 -3.44,-1.52 -5.32,-1.52 z m 45.68,18.68 h -11.2 l 10.68,-18.56 h -13.88 v 1.52 h 11.04 l -10.48,18.56 h 13.84 z m 43.43995,-18.48 h -1.76 l -7.08,16.04 -7.04,-16.04 h -1.8 l 8,18.4 -5.04,11.72 h 1.8 l 5.36,-12.48 z m 40.56,-0.04 -2.2,0.04 -9.32,11.08 v -21.04 h -1.64 v 29.96 h 1.64 v -6.28 l 3.36,-4.08 8.48,10.36 h 1.68 l -9.2,-11.56 z"
   id="text1"
   transform="scale(1.0729537,0.93200666)"
   aria-label="a  d  a  m    r  y  b  a  c  z  y  k" /></svg>
